<?xml version="1.0" encoding="UTF-8" standalone="no"?>
<!DOCTYPE svg PUBLIC "-//W3C//DTD SVG 1.1//EN" "http://www.w3.org/Graphics/SVG/1.1/DTD/svg11.dtd">
<svg xmlns="http://www.w3.org/2000/svg" xmlns:xlink="http://www.w3.org/1999/xlink" xmlns:serif="http://www.serif.com/" width="100%" height="100%" viewBox="0 0 3544 237" version="1.1" xml:space="preserve" style="fill-rule:evenodd;clip-rule:evenodd;stroke-linejoin:round;stroke-miterlimit:2;">
    <g transform="matrix(1,0,0,1,-213.482,0)">
        <g id="Logo-AFPy" serif:id="Logo AFPy">
            <g transform="matrix(1,0,0,1,213.482,0)">
                <path d="M1777.47,127.985L1741.11,127.985L1732.61,150.613L1716.78,150.613L1752.36,59.055L1759.29,59.055C1764,59.055 1767.27,61.366 1769.1,65.987L1801.8,150.613L1785.84,150.613L1777.47,127.985ZM1745.42,115.167L1771.65,118.11L1759.42,78.021L1759.29,78.021L1745.42,115.167ZM1812,59.055L1877.79,59.055L1877.79,72.396L1827.3,72.396L1827.3,99.995L1872.95,99.995L1872.95,113.336L1827.3,113.336L1827.3,150.613L1812,150.613L1812,59.055ZM1889.83,59.055L1936.78,59.055C1944.45,59.055 1950.65,61.213 1955.35,65.53C1960.06,69.846 1962.42,75.536 1962.42,82.599L1962.42,95.155C1962.42,102.567 1959.95,108.518 1955.03,113.009C1950.1,117.5 1943.63,119.745 1935.6,119.745L1905.13,119.745L1905.13,150.613L1889.83,150.613L1889.83,59.055ZM1935.34,106.404C1938.92,106.404 1941.77,105.314 1943.91,103.134C1946.05,100.954 1947.11,98.12 1947.11,94.632L1947.11,82.991C1947.11,79.765 1946.15,77.192 1944.24,75.274C1942.32,73.356 1939.75,72.396 1936.52,72.396L1905.13,72.396L1905.13,106.404L1935.34,106.404ZM1997.34,177.165C1990.71,177.165 1985.24,175.334 1980.92,171.672C1976.61,168.01 1974.23,163.17 1973.8,157.153L1988.58,157.153C1988.84,159.333 1989.75,161.077 1991.32,162.385C1992.89,163.693 1994.9,164.347 1997.34,164.347L2007.93,164.347C2011.25,164.347 2013.89,163.105 2015.85,160.619C2017.81,158.134 2018.79,154.799 2018.79,150.613L2018.79,140.934C2016.7,143.812 2014.28,146.079 2011.53,147.736C2008.79,149.393 2006.02,150.221 2003.23,150.221L1994.72,150.221C1988.1,150.221 1982.76,148.019 1978.7,143.616C1974.65,139.212 1972.62,133.392 1972.62,126.154L1972.62,85.345L1987.66,85.345L1987.66,126.416C1987.66,129.729 1988.47,132.389 1990.08,134.395C1991.69,136.4 1993.85,137.403 1996.56,137.403L2004.27,137.403C2007.5,137.403 2010.49,136.051 2013.23,133.348C2015.98,130.645 2017.83,127.201 2018.79,123.015L2018.79,85.345L2033.7,85.345L2033.7,150.613C2033.7,158.723 2031.37,165.176 2026.7,169.971C2022.04,174.767 2015.78,177.165 2007.93,177.165L1997.34,177.165Z" style="fill:rgb(59,59,59);"/>
            </g>
            <g id="Embleme-AFPy" serif:id="Embleme AFPy" transform="matrix(2.51667,0,0,2.51667,1617.31,-10.3793)">
                <path id="path2896" d="M58.164,76.775C43.97,66.249 40.996,46.208 51.523,32.013C62.05,17.819 82.09,14.846 96.285,25.372C110.48,35.899 113.453,55.94 102.927,70.135C92.401,84.328 72.362,87.303 58.168,76.779" style="fill:white;fill-rule:nonzero;"/>
                <path id="path2898" d="M77.321,50.784L55.388,78.559C67.596,88.233 84.128,88.838 97.005,80.074L77.321,50.784Z" style="fill:rgb(255,111,50);fill-rule:nonzero;"/>
                <path id="path2900" d="M77.321,50.784L96.549,80.387C109.723,71.723 115.446,55.928 110.878,40.837L77.321,50.784Z" style="fill:rgb(132,50,107);fill-rule:nonzero;"/>
                <path id="path2902" d="M77.321,50.784L111.07,41.462C106.764,26.207 93.286,15.951 77.435,15.857L77.321,50.784Z" style="fill:rgb(50,173,169);fill-rule:nonzero;"/>
                <path id="path2904" d="M77.321,50.784L78.3,15.881C62.477,15.403 48.649,25.126 43.776,40.188L77.321,50.784Z" style="fill:rgb(235,255,50);fill-rule:nonzero;"/>
                <path id="path2906" d="M77.321,50.784L43.944,39.731C38.981,54.384 43.875,70.041 56.302,79.256L77.321,50.784Z" style="fill:rgb(50,123,214);fill-rule:nonzero;"/>
                <path id="path2908" d="M74.038,20.819C68.888,20.845 61.747,22.304 60.937,28.432C60.521,30.452 61.04,32.941 60.633,34.689C54.505,34.032 47.671,37.792 46.844,44.266C45.141,51.533 45.552,60.945 52.007,65.71C54.534,67.434 58.271,66.715 60.612,67.289C59.959,72.489 62.223,78.406 67.781,79.722C75.639,82.708 85.886,82.285 92.018,76.016C94.147,73.552 93.331,69.501 93.922,67.086C98.847,67.713 104.94,66.099 106.395,60.789C109.788,53.12 109.311,42.817 103.337,36.572C100.684,34.297 96.396,35.107 93.739,34.547C94.437,29.305 92.159,23.205 86.591,21.811C82.59,20.502 78.202,20.645 74.038,20.819Z" style="fill:white;fill-rule:nonzero;"/>
                <g transform="matrix(0.796079,0,0,0.763683,80.778,82.5278)">
                    <path d="M-4.895,-77.598C-7.864,-77.584 -10.7,-77.331 -13.196,-76.889C-20.548,-75.59 -21.883,-72.872 -21.883,-67.858L-21.883,-61.237L-4.51,-61.237L-4.51,-59.03L-28.403,-59.03C-33.453,-59.03 -37.873,-55.995 -39.256,-50.221C-40.852,-43.604 -40.922,-39.475 -39.256,-32.565C-38.021,-27.42 -35.072,-23.757 -30.023,-23.757L-24.05,-23.757L-24.05,-31.694C-24.05,-37.428 -19.088,-42.486 -13.196,-42.486L4.156,-42.486C8.987,-42.486 12.844,-46.464 12.844,-51.315L12.844,-67.858C12.844,-72.567 8.872,-76.103 4.156,-76.889C1.173,-77.386 -1.923,-77.612 -4.895,-77.598ZM-14.29,-72.272C-12.495,-72.272 -11.03,-70.783 -11.03,-68.952C-11.03,-67.126 -12.495,-65.651 -14.29,-65.651C-16.09,-65.651 -17.55,-67.126 -17.55,-68.952C-17.55,-70.783 -16.09,-72.272 -14.29,-72.272Z" style="fill:url(#_Linear1);"/>
                </g>
                <g transform="matrix(0.796079,0,0,0.763683,80.9679,82.5278)">
                    <path d="M15.011,-59.03L15.011,-51.315C15.011,-45.334 9.939,-40.3 4.157,-40.3L-13.196,-40.3C-17.949,-40.3 -21.883,-36.231 -21.883,-31.471L-21.883,-14.928C-21.883,-10.22 -17.789,-7.45 -13.196,-6.1C-7.697,-4.483 -2.423,-4.19 4.157,-6.1C8.53,-7.365 12.844,-9.915 12.844,-14.928L12.844,-21.549L-4.51,-21.549L-4.51,-23.757L21.53,-23.757C26.579,-23.757 28.461,-27.278 30.218,-32.564C32.031,-38.007 31.954,-43.241 30.218,-50.221C28.969,-55.248 26.586,-59.03 21.53,-59.03L15.011,-59.03ZM5.25,-17.135C7.052,-17.135 8.51,-15.659 8.51,-13.835C8.51,-12.003 7.052,-10.515 5.25,-10.515C3.457,-10.515 1.991,-12.003 1.991,-13.835C1.991,-15.659 3.457,-17.135 5.25,-17.135Z" style="fill:url(#_Linear2);"/>
                </g>
            </g>
        </g>
    </g>
    <defs>
        <linearGradient id="_Linear1" x1="0" y1="0" x2="1" y2="0" gradientUnits="userSpaceOnUse" gradientTransform="matrix(8.94193,9.32125,-8.66141,9.02883,-15.617,-77.5986)"><stop offset="0" style="stop-color:rgb(59,120,167);stop-opacity:1"/><stop offset="1" style="stop-color:rgb(48,104,151);stop-opacity:1"/></linearGradient>
        <linearGradient id="_Linear2" x1="0" y1="0" x2="1" y2="0" gradientUnits="userSpaceOnUse" gradientTransform="matrix(13.2104,13.7708,-13.2104,13.7708,2.67533,-33.9739)"><stop offset="0" style="stop-color:rgb(255,232,116);stop-opacity:1"/><stop offset="1" style="stop-color:rgb(255,212,58);stop-opacity:1"/></linearGradient>
    </defs>
</svg>
