<?xml version="1.0" encoding="UTF-8" standalone="no"?>
<!-- Created with Inkscape (http://www.inkscape.org/) -->

<svg
   width="1393.7452"
   height="373.4668"
   viewBox="0 0 368.76175 98.813093"
   version="1.1"
   id="svg185"
   inkscape:version="1.2.1 (9c6d41e410, 2022-07-14, custom)"
   sodipodi:docname="logos.svg"
   xml:space="preserve"
   xmlns:inkscape="http://www.inkscape.org/namespaces/inkscape"
   xmlns:sodipodi="http://sodipodi.sourceforge.net/DTD/sodipodi-0.dtd"
   xmlns="http://www.w3.org/2000/svg"
   xmlns:svg="http://www.w3.org/2000/svg"
   xmlns:rdf="http://www.w3.org/1999/02/22-rdf-syntax-ns#"
   xmlns:cc="http://creativecommons.org/ns#"
   xmlns:dc="http://purl.org/dc/elements/1.1/"
   xmlns:serif="http://www.serif.com/"><defs
     id="defs179"><linearGradient
       id="_Linear1"
       x1="0"
       y1="0"
       x2="1"
       y2="0"
       gradientUnits="userSpaceOnUse"
       gradientTransform="matrix(8.94193,9.32125,-8.66141,9.02883,-15.617,-77.5986)"><stop
         offset="0"
         style="stop-color:rgb(59,120,167);stop-opacity:1"
         id="stop389" /><stop
         offset="1"
         style="stop-color:rgb(48,104,151);stop-opacity:1"
         id="stop391" /></linearGradient><linearGradient
       id="_Linear2"
       x1="0"
       y1="0"
       x2="1"
       y2="0"
       gradientUnits="userSpaceOnUse"
       gradientTransform="matrix(13.2104,13.7708,-13.2104,13.7708,2.67533,-33.9739)"><stop
         offset="0"
         style="stop-color:rgb(255,232,116);stop-opacity:1"
         id="stop394" /><stop
         offset="1"
         style="stop-color:rgb(255,212,58);stop-opacity:1"
         id="stop396" /></linearGradient><clipPath
       clipPathUnits="userSpaceOnUse"
       id="clipPath18"><path
         d="M 0,841.89 H 595.28 V 0 H 0 Z"
         id="path20"
         inkscape:connector-curvature="0" /></clipPath></defs><sodipodi:namedview
     id="base"
     pagecolor="#ffffff"
     bordercolor="#666666"
     borderopacity="1.0"
     inkscape:pageopacity="0.0"
     inkscape:pageshadow="2"
     inkscape:zoom="0.35"
     inkscape:cx="635.71429"
     inkscape:cy="395.71429"
     inkscape:document-units="px"
     inkscape:current-layer="layer1"
     showgrid="false"
     units="px"
     inkscape:window-width="1916"
     inkscape:window-height="1036"
     inkscape:window-x="0"
     inkscape:window-y="20"
     inkscape:window-maximized="1"
     inkscape:showpageshadow="2"
     inkscape:pagecheckerboard="0"
     inkscape:deskcolor="#d1d1d1" /><metadata
     id="metadata182"><rdf:RDF><cc:Work
         rdf:about=""><dc:format>image/svg+xml</dc:format><dc:type
           rdf:resource="http://purl.org/dc/dcmitype/StillImage" /></cc:Work></rdf:RDF></metadata><g
     inkscape:label="Calque 1"
     inkscape:groupmode="layer"
     id="layer1"
     transform="translate(61.708373,-43.995503)"><g
       style="fill:none"
       id="g438"
       transform="matrix(0.26458333,0,0,0.26458333,75.058609,115.65229)"><path
         d="m 333.24,28.3462 v 10.0997 c -5.736,-7.3441 -14.064,-11.9327 -23.952,-11.9327 -19.08,0 -33.864,17.0365 -33.864,38.0625 0,21.0261 14.784,38.0623 33.864,38.0623 10.584,0 19.38,-5.2472 25.128,-13.5139 v 11.6929 h 18.252 V 28.3462 Z m -19.212,56.1414 c -10.608,0 -19.2,-8.9136 -19.2,-19.9119 0,-10.9982 8.592,-19.9118 19.2,-19.9118 10.608,0 19.2,8.9136 19.2,19.9118 0,10.9983 -8.592,19.9119 -19.2,19.9119 z M 109.5,8.23073 h 19.416 V 100.805 H 109.5 Z m 41.748,51.50487 c 0,-19.9239 12.252,-33.2104 29.22,-33.2104 10.536,0 18.864,4.6724 23.88,12.6396 5.028,-7.9672 13.344,-12.6396 23.88,-12.6396 16.968,0 29.22,13.2865 29.22,33.2104 V 100.817 H 238.032 V 57.6389 c 0,-7.7754 -5.16,-12.8432 -11.988,-12.8432 -6.828,0 -11.988,5.0798 -11.988,12.8432 V 100.817 H 194.64 V 57.6389 c 0,-7.7754 -5.16,-12.8432 -11.988,-12.8432 -6.828,0 -11.988,5.0798 -11.988,12.8432 V 100.817 H 151.248 Z M 74.34,29.101 C 69.744,11.9088 60.0241,6.40967 50.7721,6.40967 41.52,6.40967 31.8,11.9088 27.204,29.101 L 7.24805,100.829 H 26.916 c 3.204,-11.9804 13.08,-18.6537 23.8561,-18.6537 10.776,0 20.6519,6.6852 23.8559,18.6537 H 94.3081 Z M 50.7721,65.4623 c -6.2641,0 -11.94,2.3722 -16.128,6.218 l 11.28,-41.7406 c 1.08,-3.9896 2.676,-5.2595 4.86,-5.2595 2.184,0 3.78,1.2699 4.86,5.2595 L 66.912,71.6803 c -4.188,-3.8458 -9.8759,-6.218 -16.1399,-6.218 z"
         fill="#fa5022"
         id="path429" /></g><g
       style="clip-rule:evenodd;fill-rule:evenodd;stroke-linejoin:round;stroke-miterlimit:2"
       id="g427"
       transform="matrix(0.26458333,0,0,0.26458333,-231.02974,42.411351)"><g
         transform="translate(-213.482)"
         id="g387">
        <g
   id="Logo-AFPy"
   serif:id="Logo AFPy">
            <g
   transform="translate(213.482)"
   id="g368">
                <path
   d="m 1777.47,127.985 h -36.36 l -8.5,22.628 h -15.83 l 35.58,-91.558 h 6.93 c 4.71,0 7.98,2.311 9.81,6.932 l 32.7,84.626 h -15.96 z m -32.05,-12.818 26.23,2.943 -12.23,-40.089 h -0.13 z M 1812,59.055 h 65.79 v 13.341 h -50.49 v 27.599 h 45.65 v 13.341 h -45.65 v 37.277 H 1812 Z m 77.83,0 h 46.95 c 7.67,0 13.87,2.158 18.57,6.475 4.71,4.316 7.07,10.006 7.07,17.069 v 12.556 c 0,7.412 -2.47,13.363 -7.39,17.854 -4.93,4.491 -11.4,6.736 -19.43,6.736 h -30.47 v 30.868 h -15.3 z m 45.51,47.349 c 3.58,0 6.43,-1.09 8.57,-3.27 2.14,-2.18 3.2,-5.014 3.2,-8.502 V 82.991 c 0,-3.226 -0.96,-5.799 -2.87,-7.717 -1.92,-1.918 -4.49,-2.878 -7.72,-2.878 h -31.39 v 34.008 z m 62,70.761 c -6.63,0 -12.1,-1.831 -16.42,-5.493 -4.31,-3.662 -6.69,-8.502 -7.12,-14.519 h 14.78 c 0.26,2.18 1.17,3.924 2.74,5.232 1.57,1.308 3.58,1.962 6.02,1.962 h 10.59 c 3.32,0 5.96,-1.242 7.92,-3.728 1.96,-2.485 2.94,-5.82 2.94,-10.006 v -9.679 c -2.09,2.878 -4.51,5.145 -7.26,6.802 -2.74,1.657 -5.51,2.485 -8.3,2.485 h -8.51 c -6.62,0 -11.96,-2.202 -16.02,-6.605 -4.05,-4.404 -6.08,-10.224 -6.08,-17.462 V 85.345 h 15.04 v 41.071 c 0,3.313 0.81,5.973 2.42,7.979 1.61,2.005 3.77,3.008 6.48,3.008 h 7.71 c 3.23,0 6.22,-1.352 8.96,-4.055 2.75,-2.703 4.6,-6.147 5.56,-10.333 v -37.67 h 14.91 v 65.268 c 0,8.11 -2.33,14.563 -7,19.358 -4.66,4.796 -10.92,7.194 -18.77,7.194 z"
   style="fill:#3b3b3b"
   id="path366" />
            </g>
            <g
   id="Embleme-AFPy"
   serif:id="Embleme AFPy"
   transform="matrix(2.51667,0,0,2.51667,1617.31,-10.3793)">
                <path
   id="path2896"
   d="M 58.164,76.775 C 43.97,66.249 40.996,46.208 51.523,32.013 62.05,17.819 82.09,14.846 96.285,25.372 110.48,35.899 113.453,55.94 102.927,70.135 92.401,84.328 72.362,87.303 58.168,76.779"
   style="fill:#ffffff;fill-rule:nonzero" />
                <path
   id="path2898"
   d="M 77.321,50.784 55.388,78.559 c 12.208,9.674 28.74,10.279 41.617,1.515 z"
   style="fill:#ff6f32;fill-rule:nonzero" />
                <path
   id="path2900"
   d="m 77.321,50.784 19.228,29.603 c 13.174,-8.664 18.897,-24.459 14.329,-39.55 z"
   style="fill:#84326b;fill-rule:nonzero" />
                <path
   id="path2902"
   d="M 77.321,50.784 111.07,41.462 C 106.764,26.207 93.286,15.951 77.435,15.857 Z"
   style="fill:#32ada9;fill-rule:nonzero" />
                <path
   id="path2904"
   d="M 77.321,50.784 78.3,15.881 C 62.477,15.403 48.649,25.126 43.776,40.188 Z"
   style="fill:#ebff32;fill-rule:nonzero" />
                <path
   id="path2906"
   d="M 77.321,50.784 43.944,39.731 c -4.963,14.653 -0.069,30.31 12.358,39.525 z"
   style="fill:#327bd6;fill-rule:nonzero" />
                <path
   id="path2908"
   d="m 74.038,20.819 c -5.15,0.026 -12.291,1.485 -13.101,7.613 -0.416,2.02 0.103,4.509 -0.304,6.257 -6.128,-0.657 -12.962,3.103 -13.789,9.577 -1.703,7.267 -1.292,16.679 5.163,21.444 2.527,1.724 6.264,1.005 8.605,1.579 -0.653,5.2 1.611,11.117 7.169,12.433 7.858,2.986 18.105,2.563 24.237,-3.706 2.129,-2.464 1.313,-6.515 1.904,-8.93 4.925,0.627 11.018,-0.987 12.473,-6.297 3.393,-7.669 2.916,-17.972 -3.058,-24.217 -2.653,-2.275 -6.941,-1.465 -9.598,-2.025 0.698,-5.242 -1.58,-11.342 -7.148,-12.736 -4.001,-1.309 -8.389,-1.166 -12.553,-0.992 z"
   style="fill:#ffffff;fill-rule:nonzero" />
                <g
   transform="matrix(0.796079,0,0,0.763683,80.778,82.5278)"
   id="g379">
                    <path
   d="m -4.895,-77.598 c -2.969,0.014 -5.805,0.267 -8.301,0.709 -7.352,1.299 -8.687,4.017 -8.687,9.031 v 6.621 H -4.51 v 2.207 h -23.893 c -5.05,0 -9.47,3.035 -10.853,8.809 -1.596,6.617 -1.666,10.746 0,17.656 1.235,5.145 4.184,8.808 9.233,8.808 h 5.973 v -7.937 c 0,-5.734 4.962,-10.792 10.854,-10.792 H 4.156 c 4.831,0 8.688,-3.978 8.688,-8.829 v -16.543 c 0,-4.709 -3.972,-8.245 -8.688,-9.031 -2.983,-0.497 -6.079,-0.723 -9.051,-0.709 z m -9.395,5.326 c 1.795,0 3.26,1.489 3.26,3.32 0,1.826 -1.465,3.301 -3.26,3.301 -1.8,0 -3.26,-1.475 -3.26,-3.301 0,-1.831 1.46,-3.32 3.26,-3.32 z"
   style="fill:url(#_Linear1)"
   id="path377" />
                </g>
                <g
   transform="matrix(0.796079,0,0,0.763683,80.9679,82.5278)"
   id="g383">
                    <path
   d="m 15.011,-59.03 v 7.715 c 0,5.981 -5.072,11.015 -10.854,11.015 h -17.353 c -4.753,0 -8.687,4.069 -8.687,8.829 v 16.543 c 0,4.708 4.094,7.478 8.687,8.828 5.499,1.617 10.773,1.91 17.353,0 4.373,-1.265 8.687,-3.815 8.687,-8.828 v -6.621 H -4.51 v -2.208 h 26.04 c 5.049,0 6.931,-3.521 8.688,-8.807 1.813,-5.443 1.736,-10.677 0,-17.657 -1.249,-5.027 -3.632,-8.809 -8.688,-8.809 z M 5.25,-17.135 c 1.802,0 3.26,1.476 3.26,3.3 0,1.832 -1.458,3.32 -3.26,3.32 -1.793,0 -3.259,-1.488 -3.259,-3.32 0,-1.824 1.466,-3.3 3.259,-3.3 z"
   style="fill:url(#_Linear2)"
   id="path381" />
                </g>
            </g>
        </g>
    </g></g><g
       id="g10"
       inkscape:label="logo-full"
       transform="matrix(0.33072917,0,0,-0.33072917,-275.11559,327.72442)"><path
         d="M 645.26276,673.454 H 1240.5438 V 857.889 H 645.26276 Z"
         style="fill:none;fill-opacity:1;fill-rule:nonzero;stroke:none"
         id="path358"
         inkscape:connector-curvature="0" /><g
         id="g414"
         transform="translate(645.26276)"><g
           id="g412"
           clip-path="url(#clipPath18)"><g
             id="g362"
             transform="translate(190.0557,765.4824)"><path
               d="m 0,0 c -2.068,5.102 -5.754,6.669 -10.526,5.931 -6.23,-0.964 -9.474,-3.977 -10.23,-9.16 -0.468,-3.207 0.553,-4.976 4.069,-3.92 C -10.988,-5.439 -5.333,-3.589 0,0 m -25.405,-7.056 c 1.134,9.785 6.307,17.409 16.686,20.194 5.08,1.363 9.243,0.04 12.269,-4.154 C 6.617,4.735 4.774,0.79 2.241,-2.978 c -2.857,-4.248 -7.464,-5.907 -11.756,-8.069 -1.81,-0.911 -4.238,-0.84 -5.681,-3.48 7.082,-2.87 13.972,-3.015 21.037,-0.929 -0.483,-6.294 -3.061,-8.536 -10.716,-9.018 -5.516,-0.346 -10.924,0.457 -15.572,3.735 -2.256,1.591 -5.593,8.209 -4.958,13.683"
               style="fill:#19516b;fill-opacity:1;fill-rule:evenodd;stroke:none"
               id="path360"
               inkscape:connector-curvature="0" /></g><g
             id="g366"
             transform="translate(467.1416,750.4678)"><path
               d="m 0,0 c -1.39,4.513 -2.298,9.256 -4.312,13.47 -1.876,3.929 1.127,5.748 2.747,7.575 1.74,1.964 2.627,-0.715 3.059,-2.153 C 2.882,14.267 4.342,9.684 6.986,5.592 7.863,4.235 8.416,2.535 10.606,1.907 15.278,19.671 23.677,34.214 43.834,38.684 43.507,34.291 42.317,31.498 37.967,29.911 24.158,24.874 18.598,13.182 14.986,0.122 14.899,-0.193 14.981,-0.556 14.892,-0.87 13.97,-4.096 14.465,-8.555 10.401,-9.536 c -3.972,-0.96 -5.164,3.382 -7.364,5.67 -0.869,0.904 -1.214,2.51 -3.242,2.225 -0.736,-2.53 -2.038,-4.897 -4.492,-6.699 -3.558,2.028 -5.054,5.865 -7.471,9.391 -2.994,-3.863 -6.435,-6.467 -10.894,-7.773 -10.424,-3.053 -19.57,5.163 -17.577,15.936 1.814,9.807 10.504,17.63 20.454,18.313 1.831,0.126 4.253,-0.271 4.375,-2.181 0.171,-2.684 -1.233,-5.231 -4.299,-5.835 -1.602,-0.317 -3.322,0.015 -4.986,-0.029 -7.225,-0.191 -11.376,-3.902 -10.69,-9.519 0.809,-6.623 7.087,-11.287 13.556,-10.072 6.986,1.311 9.028,3.917 5.947,9.626 -2.712,5.025 -0.459,7.926 2.617,11.999 C -9.102,14.019 -8.852,4.485 0,0"
               style="fill:#19516b;fill-opacity:1;fill-rule:evenodd;stroke:none"
               id="path364"
               inkscape:connector-curvature="0" /></g><g
             id="g370"
             transform="translate(532.9609,779.2568)"><path
               d="m 0,0 c 0.402,-8.8 2.647,-16.514 8.216,-23.371 0.767,7.105 1.088,14.526 8.035,18.183 8.589,4.52 17.892,6.839 28.051,5.82 -0.396,-4.526 -1.518,-7.412 -6.885,-7.044 -7.237,0.496 -14.044,-1.964 -20.832,-4.179 -2.135,-0.697 -2.616,-2.145 -2.621,-4.195 -0.01,-4.033 0.313,-8.063 1.749,-11.788 1.19,-3.089 0.876,-5.631 -0.564,-8.49 -2.442,-4.853 -4.24,-5.406 -7.837,-1.153 -6.313,7.465 -10.148,16.222 -12.135,25.787 -0.134,0.645 -0.281,1.286 -0.489,2.24 -4.104,-1.597 -6.861,-3.176 -4.003,-8.284 1.964,-3.512 -0.043,-7.179 -1.671,-10.432 -3.145,-6.284 -8.773,-8.995 -15.434,-9.316 -5.971,-0.287 -9.716,3.341 -12.392,8.374 -3.457,6.501 2.019,19.629 10.123,23.5 2.66,1.272 5.638,1.888 8.489,2.747 2.401,0.725 5.27,0.609 5.554,-2.083 0.256,-2.435 -1.249,-5.201 -4.5,-5.613 -1.309,-0.166 -2.661,0.014 -3.993,-0.006 -7.554,-0.111 -11.347,-3.943 -10.92,-11.013 0.323,-5.314 6.824,-9.587 13.083,-8.601 7.793,1.23 9.923,6.051 5.511,12.732 -0.719,1.089 -0.255,1.864 0.021,2.726 C -13.885,-8.58 -5.582,-1.267 0,0"
               style="fill:#19516b;fill-opacity:1;fill-rule:evenodd;stroke:none"
               id="path368"
               inkscape:connector-curvature="0" /></g><g
             id="g374"
             transform="translate(320.9287,769.9463)"><path
               d="m 0,0 c -7.564,0.017 -12.709,-3.376 -12.567,-8.287 0.181,-6.299 5.29,-11.3 11.567,-11.325 5.336,-0.022 9.207,2.595 9.163,6.195 C 8.068,-5.767 4.566,-0.01 0,0 M 12.134,34.484 C 9.066,22.722 8.57,12.066 10.985,1.414 c 1.519,-6.698 3.786,-13.254 8.597,-18.279 3.778,-3.947 2.787,-6.741 -0.933,-9.856 -3.64,1.662 -4.851,5.52 -7.402,8.659 -2.862,-3.908 -6.34,-6.749 -11.006,-8.117 -10.242,-3.002 -19.216,4.681 -17.765,15.294 1.502,10.989 7.648,15.664 16.937,17.972 3.631,0.902 4.845,2.121 5.054,6.017 0.328,6.109 -0.405,12.55 3.422,18.151 0.91,1.333 1.745,2.086 4.245,3.229"
               style="fill:#19516b;fill-opacity:1;fill-rule:evenodd;stroke:none"
               id="path372"
               inkscape:connector-curvature="0" /></g><g
             id="g378"
             transform="translate(276.8042,765.4326)"><path
               d="m 0,0 c -2.691,5.49 -5.401,6.713 -11.646,5.53 -5.174,-0.979 -8.147,-3.984 -8.785,-9.216 -0.337,-2.764 0.764,-4.305 3.685,-3.42 C -10.917,-5.339 -5.082,-3.533 0,0 m -14.641,-14.439 c 6.934,-3.122 13.809,-1.923 21.06,-1.176 0.356,-3.682 -1.639,-6.139 -4.737,-7.43 -8.666,-3.611 -19.182,-0.876 -25.202,6.303 -0.617,0.735 -1.142,1.624 -1.45,2.53 -4.17,12.264 8.021,28.56 20.835,27.894 C 3.429,13.288 7.343,6.286 4.083,-0.564 0.806,-7.45 -5.81,-9.505 -11.954,-12.328 c -0.873,-0.401 -2.016,-0.346 -2.687,-2.111"
               style="fill:#19516b;fill-opacity:1;fill-rule:evenodd;stroke:none"
               id="path376"
               inkscape:connector-curvature="0" /></g><g
             id="g382"
             transform="translate(369.8711,765.4834)"><path
               d="m 0,0 c -2.07,5.388 -6.089,6.476 -11.185,5.53 -5.803,-1.075 -8.851,-4.073 -9.329,-9.23 -0.3,-3.261 1.184,-4.313 4.153,-3.354 C -10.724,-5.233 -5.026,-3.523 0,0 m 6.608,-15.726 c -0.712,-5.016 -3.27,-7.381 -8.249,-8.157 -8.63,-1.345 -16.3,-0.52 -21.925,7.056 -0.578,0.776 -1.149,1.618 -1.461,2.519 -4.146,11.986 7.684,28.248 20.29,27.939 8.21,-0.201 12.191,-7.246 8.543,-14.609 -2.942,-5.933 -8.468,-8.126 -13.901,-10.599 -1.468,-0.668 -2.968,-1.264 -5.563,-2.362 7.792,-3.833 14.887,-2.331 22.266,-1.787"
               style="fill:#19516b;fill-opacity:1;fill-rule:evenodd;stroke:none"
               id="path380"
               inkscape:connector-curvature="0" /></g><g
             id="g386"
             transform="translate(243.9395,740.9863)"><path
               d="m 0,0 c -6.236,6.943 -10.503,14.904 -12.271,24.02 -2.235,11.535 -2.7,23.06 2.272,34.17 0.52,1.161 0.726,2.999 2.402,2.503 2.008,-0.593 1.287,-2.372 0.754,-3.762 -0.84,-2.191 -1.436,-4.388 -0.882,-7.06 9.817,4.704 19.828,8.135 31.068,7.049 C 22.971,52.135 21.475,49.573 16.276,49.853 8.701,50.26 1.598,47.74 -5.462,45.223 -8.332,44.2 -8.643,42.104 -8.557,39.709 -8.17,28.831 -5.429,18.74 1.439,10.026 5.542,4.82 5.506,4.792 0,0"
               style="fill:#19516b;fill-opacity:1;fill-rule:evenodd;stroke:none"
               id="path384"
               inkscape:connector-curvature="0" /></g><g
             id="g390"
             transform="translate(419.46,765.3076)"><path
               d="m 0,0 c -1.829,0.293 -2.578,1.723 -3.589,3.032 -2.751,3.566 -6.324,4.416 -10.664,3.096 -2.791,-0.85 -5.194,-2.507 -5.694,-5.034 -0.592,-2.995 2.971,-3.025 4.806,-4.073 4.058,-2.315 8.517,-3.786 13.037,-4.92 2.804,-0.704 4.297,-2.438 4.856,-5.054 0.542,-2.534 -0.602,-4.471 -2.512,-6.121 -5.634,-4.866 -12.338,-6.283 -19.351,-5.066 -3.498,0.608 -6.26,3.331 -6.695,7.836 6.727,0.033 13.835,-1.4 21.544,2.65 -3.636,1.478 -6.143,2.608 -8.727,3.522 -4.99,1.766 -8.337,5.368 -10.215,10.033 -3.378,8.396 1.432,14.589 10.433,13.891 C -3.618,13.082 1.557,7.543 0,0"
               style="fill:#19516b;fill-opacity:1;fill-rule:evenodd;stroke:none"
               id="path388"
               inkscape:connector-curvature="0" /></g><g
             id="g394"
             transform="translate(199.6831,749.8076)"><path
               d="m 0,0 c 7.338,-1.752 13.909,-1.674 21.408,1.584 -3.653,1.737 -6.178,3.331 -8.932,4.162 -4.893,1.477 -7.666,5.083 -9.714,9.23 -3.961,8.021 0.736,14.764 9.726,14.323 9.017,-0.442 14.485,-5.763 13.624,-13.516 -2.415,0.319 -3.368,2.531 -4.826,3.871 -2.608,2.397 -5.481,3.002 -8.738,2.29 C 9.488,21.276 6.47,19.692 5.866,16.67 5.218,13.431 9.015,13.314 11.008,12.374 15.044,10.47 19.323,9.057 23.557,7.603 29.143,5.685 30.497,0.374 26.013,-3.407 19.919,-8.545 12.97,-10.373 5.201,-7.553 1.792,-6.315 0.897,-3.473 0,0"
               style="fill:#19516b;fill-opacity:1;fill-rule:evenodd;stroke:none"
               id="path392"
               inkscape:connector-curvature="0" /></g><g
             id="g398"
             transform="translate(527.8535,787.2021)"><path
               d="m 0,0 c -1.303,9.63 3.294,14.546 11.084,13.899 1.94,-0.161 2.763,-0.89 2.767,-2.635 C 13.854,9.663 13.362,8.148 11.395,8.204 6.186,8.354 2.547,6.049 0,0"
               style="fill:#19516b;fill-opacity:1;fill-rule:evenodd;stroke:none"
               id="path396"
               inkscape:connector-curvature="0" /></g><g
             id="g402"
             transform="translate(156.6675,752.3877)"><path
               d="M 0,0 C 2.023,8.623 1.561,10.32 1.559,20.258 1.555,36.42 -9.89,45.596 -24.443,39.167 -37.341,33.467 -52.43,22.96 -61.25,13.018 c 0.44,-1.775 0.42,-1.683 1.262,-4.047 0,0 14.851,14.626 27.905,17.824 7.238,1.772 16.62,-2.35 19.547,-9.017 0,0 8.491,-18.508 -1.065,-37.866 -1.886,-3.976 -3.461,-7.297 -5.033,-10.62 0,0 -0.612,-0.846 0,-1.274 0,0 0.89,-0.806 1.456,0 0,0 14.469,20.426 17.178,31.982"
               style="fill:#f8ad32;fill-opacity:1;fill-rule:evenodd;stroke:none"
               id="path400"
               inkscape:connector-curvature="0" /></g><g
             id="g406"
             transform="translate(24.3271,787.7803)"><path
               d="M 0,0 C 10.319,9.908 21.959,15.851 35.988,17.137 47.49,18.194 56.135,10.121 56.2,-1.436 c 0.021,-3.749 -0.174,-7.549 -0.778,-11.243 -4.908,-29.985 7.366,-41.894 37.76,-41.297 7.782,0.153 15.207,1.199 23.718,2.846 0,0 17.264,3.63 26.326,11.471 2.911,2.518 5.454,5.656 8.134,8.547 0.731,2.034 -1.448,1.259 -1.448,1.259 -18.883,-9.007 -30.247,-10.674 -30.247,-10.674 -13.22,-1.951 -26.405,-3.36 -38.957,3.295 -8.571,4.544 -12.062,11.984 -11.192,21.645 0.725,8.051 1.991,16.166 1.595,24.183 C 70.236,26.246 57.196,35.402 39.927,31.112 21.424,26.516 8.504,14.607 -3.503,0.308 c -3.202,-3.814 -2.135,-4.322 -2.135,-4.322 0,0 0.914,-0.523 5.638,4.014"
               style="fill:#19516b;fill-opacity:1;fill-rule:evenodd;stroke:none"
               id="path404"
               inkscape:connector-curvature="0" /></g><g
             id="g410"
             transform="translate(77.1812,756.7612)"><path
               d="m 0,0 c -26.007,-5.248 -34.209,-4.312 -42.486,16.763 -3.375,-5.034 -7.035,-8.377 -8.024,-12.38 -2.556,-10.354 5.911,-21.088 17.512,-20.996 8.714,0.07 17.549,2.555 26.072,4.965 4.936,1.395 7.74,2.604 9.116,3.865 C 1.152,-5.474 0.425,-2.882 0,0"
               style="fill:#f8ad32;fill-opacity:1;fill-rule:evenodd;stroke:none"
               id="path408"
               inkscape:connector-curvature="0" /></g></g></g></g></g></svg>
